<mxfile host="65bd71144e">
    <diagram id="yynd-SrLeCitUgTHAXsJ" name="Page-1">
        <mxGraphModel dx="484" dy="434" grid="1" gridSize="10" guides="1" tooltips="1" connect="1" arrows="1" fold="1" page="1" pageScale="1" pageWidth="827" pageHeight="1169" math="0" shadow="0">
            <root>
                <mxCell id="0"/>
                <mxCell id="1" parent="0"/>
                <mxCell id="2" value="" style="rounded=0;whiteSpace=wrap;html=1;fillColor=#FFFFFF;" vertex="1" parent="1">
                    <mxGeometry x="80" y="80" width="400" height="280" as="geometry"/>
                </mxCell>
                <mxCell id="3" value="Can you do math?" style="rounded=0;whiteSpace=wrap;html=1;fillColor=#FF9933;fontColor=#ffffff;strokeColor=#006EAF;" vertex="1" parent="1">
                    <mxGeometry x="80" y="80" width="400" height="40" as="geometry"/>
                </mxCell>
                <mxCell id="4" value="FINAL MARK: --/--&lt;br&gt;&lt;br&gt;&lt;br&gt;&lt;br&gt;&lt;br&gt;&lt;br&gt;(message goes here)" style="rounded=1;whiteSpace=wrap;html=1;align=center;fillColor=#B5CEFF;fontColor=#000000;" vertex="1" parent="1">
                    <mxGeometry x="180" y="130" width="200" height="160" as="geometry"/>
                </mxCell>
                <mxCell id="7" value="back to home" style="rounded=0;whiteSpace=wrap;html=1;fillColor=#FF9933;fontColor=#000000;" vertex="1" parent="1">
                    <mxGeometry x="240" y="262" width="80" height="20" as="geometry"/>
                </mxCell>
                <mxCell id="8" value="Actor" style="shape=umlActor;verticalLabelPosition=bottom;verticalAlign=top;html=1;outlineConnect=0;fontColor=#000000;fillColor=#B5CEFF;strokeColor=#030303;" vertex="1" parent="1">
                    <mxGeometry x="270" y="180" width="20" height="30" as="geometry"/>
                </mxCell>
            </root>
        </mxGraphModel>
    </diagram>
</mxfile>